<svg width="63" height="63" viewBox="0 0 63 63" fill="none" xmlns="http://www.w3.org/2000/svg">
<path d="M58.0625 0.25H4.9375C3.6943 0.25 2.50201 0.74386 1.62294 1.62294C0.74386 2.50201 0.25 3.6943 0.25 4.9375V58.0625C0.25 59.3057 0.74386 60.498 1.62294 61.3771C2.50201 62.2561 3.6943 62.75 4.9375 62.75H58.0625C59.3057 62.75 60.498 62.2561 61.3771 61.3771C62.2561 60.498 62.75 59.3057 62.75 58.0625V4.9375C62.75 3.6943 62.2561 2.50201 61.3771 1.62294C60.498 0.74386 59.3057 0.25 58.0625 0.25ZM19 53.375H9.625V25.25H19V53.375ZM14.3125 19.7812C13.2381 19.7505 12.1965 19.4039 11.318 18.7846C10.4394 18.1653 9.76286 17.3009 9.3728 16.2993C8.98274 15.2977 8.89648 14.2034 9.12481 13.153C9.35314 12.1027 9.88593 11.1429 10.6566 10.3937C11.4273 9.6444 12.4017 9.13885 13.458 8.9402C14.5144 8.74154 15.6058 8.85858 16.596 9.27669C17.5863 9.69481 18.4313 10.3955 19.0256 11.2911C19.6199 12.1867 19.9371 13.2376 19.9375 14.3125C19.9128 15.7823 19.3073 17.1827 18.2533 18.2074C17.1993 19.2321 15.7825 19.798 14.3125 19.7812ZM53.375 53.375H44V38.5625C44 34.125 42.125 32.5312 39.6875 32.5312C38.9728 32.5788 38.2746 32.7671 37.633 33.0853C36.9913 33.4035 36.4188 33.8454 35.9484 34.3855C35.478 34.9256 35.1189 35.5533 34.8918 36.2326C34.6647 36.9119 34.574 37.6293 34.625 38.3438C34.6095 38.4892 34.6095 38.6358 34.625 38.7812V53.375H25.25V25.25H34.3125V29.3125C35.2267 27.9219 36.4826 26.7893 37.96 26.0232C39.4374 25.2572 41.0867 24.8833 42.75 24.9375C47.5938 24.9375 53.25 27.625 53.25 36.375L53.375 53.375Z" fill="black"/>
</svg>
